<?xml version="1.0" encoding="utf-8" ?>
<svg baseProfile="tiny" height="1024" version="1.2" width="1024" xmlns="http://www.w3.org/2000/svg" xmlns:ev="http://www.w3.org/2001/xml-events" xmlns:xlink="http://www.w3.org/1999/xlink"><defs /><path d="M 367,680 L 367,692 L 368,692 L 369,691 L 663,691 L 663,680 Z" fill="black" /><path d="M 553,368 L 552,369 L 553,370 L 553,382 L 554,381 L 570,381 L 571,382 L 577,382 L 578,383 L 580,383 L 581,384 L 582,384 L 583,385 L 584,385 L 586,387 L 587,387 L 588,388 L 588,389 L 591,392 L 591,393 L 592,394 L 592,396 L 593,397 L 593,411 L 592,412 L 592,415 L 591,416 L 591,418 L 590,419 L 590,421 L 589,422 L 589,423 L 588,424 L 588,426 L 587,427 L 587,429 L 586,430 L 586,431 L 585,432 L 585,434 L 584,435 L 584,437 L 583,438 L 583,439 L 582,440 L 582,442 L 581,443 L 581,444 L 580,445 L 580,447 L 579,448 L 579,450 L 578,451 L 578,452 L 577,453 L 577,455 L 576,456 L 576,458 L 575,459 L 575,460 L 574,461 L 574,463 L 573,464 L 573,466 L 572,467 L 572,468 L 571,469 L 571,471 L 570,472 L 570,474 L 569,475 L 569,476 L 568,477 L 568,479 L 567,480 L 567,481 L 566,482 L 566,484 L 565,485 L 565,486 L 564,487 L 564,489 L 563,490 L 563,492 L 562,493 L 562,495 L 561,496 L 561,498 L 560,499 L 560,500 L 559,501 L 559,503 L 558,504 L 558,506 L 557,507 L 557,509 L 556,510 L 556,511 L 555,512 L 555,514 L 554,515 L 554,517 L 553,518 L 553,520 L 552,521 L 552,523 L 551,524 L 551,525 L 550,526 L 550,528 L 549,529 L 549,531 L 548,532 L 548,534 L 547,535 L 547,536 L 546,537 L 546,539 L 545,540 L 545,542 L 544,543 L 544,544 L 543,545 L 543,547 L 542,548 L 542,549 L 541,550 L 541,552 L 540,553 L 540,555 L 539,556 L 539,558 L 538,559 L 538,560 L 537,561 L 537,563 L 536,564 L 536,566 L 535,567 L 535,568 L 534,569 L 534,571 L 533,572 L 533,574 L 532,575 L 532,576 L 531,577 L 531,579 L 530,580 L 530,582 L 529,583 L 528,583 L 527,582 L 527,580 L 526,579 L 526,577 L 525,576 L 525,574 L 524,573 L 524,571 L 523,570 L 523,568 L 522,567 L 522,565 L 521,564 L 521,562 L 520,561 L 520,559 L 519,558 L 519,556 L 518,555 L 518,554 L 517,553 L 517,551 L 516,550 L 516,548 L 515,547 L 515,544 L 514,543 L 514,541 L 513,540 L 513,539 L 512,538 L 512,536 L 511,535 L 511,533 L 510,532 L 510,530 L 509,529 L 509,527 L 508,526 L 508,524 L 507,523 L 507,520 L 506,519 L 506,518 L 505,517 L 505,514 L 504,513 L 504,511 L 503,510 L 503,508 L 502,507 L 502,505 L 501,504 L 501,502 L 500,501 L 500,499 L 499,498 L 499,496 L 498,495 L 498,493 L 497,492 L 497,490 L 496,489 L 496,487 L 495,486 L 495,484 L 494,483 L 494,481 L 493,480 L 493,478 L 492,477 L 492,475 L 491,474 L 491,472 L 490,471 L 490,469 L 489,468 L 489,466 L 488,465 L 488,463 L 487,462 L 487,460 L 486,459 L 486,457 L 485,456 L 485,454 L 484,453 L 484,451 L 483,450 L 483,448 L 482,447 L 482,444 L 481,443 L 481,442 L 480,441 L 480,439 L 479,438 L 479,436 L 478,435 L 478,433 L 477,432 L 477,430 L 476,429 L 476,427 L 475,426 L 475,424 L 474,423 L 474,421 L 473,420 L 473,418 L 472,417 L 472,415 L 471,414 L 471,412 L 470,411 L 470,409 L 469,408 L 469,406 L 468,405 L 468,402 L 467,401 L 467,393 L 468,392 L 468,391 L 469,390 L 469,389 L 471,387 L 472,387 L 474,385 L 475,385 L 476,384 L 478,384 L 479,383 L 481,383 L 482,382 L 489,382 L 490,381 L 494,381 L 494,369 L 370,369 L 369,370 L 369,383 L 375,383 L 376,384 L 383,384 L 384,385 L 386,385 L 387,386 L 390,386 L 391,387 L 392,387 L 393,388 L 394,388 L 395,389 L 396,389 L 399,392 L 400,392 L 406,398 L 406,399 L 408,401 L 408,402 L 410,404 L 410,405 L 411,406 L 411,408 L 412,409 L 412,410 L 413,411 L 413,413 L 414,414 L 414,416 L 415,417 L 415,418 L 416,419 L 416,421 L 417,422 L 417,424 L 418,425 L 418,427 L 419,428 L 419,429 L 420,430 L 420,432 L 421,433 L 421,434 L 422,435 L 422,437 L 423,438 L 423,440 L 424,441 L 424,442 L 425,443 L 425,445 L 426,446 L 426,448 L 427,449 L 427,450 L 428,451 L 428,453 L 429,454 L 429,456 L 430,457 L 430,458 L 431,459 L 431,461 L 432,462 L 432,464 L 433,465 L 433,466 L 434,467 L 434,469 L 435,470 L 435,471 L 436,472 L 436,474 L 437,475 L 437,477 L 438,478 L 438,479 L 439,480 L 439,482 L 440,483 L 440,484 L 441,485 L 441,487 L 442,488 L 442,490 L 443,491 L 443,492 L 444,493 L 444,495 L 445,496 L 445,498 L 446,499 L 446,500 L 447,501 L 447,503 L 448,504 L 448,505 L 449,506 L 449,508 L 450,509 L 450,511 L 451,512 L 451,513 L 452,514 L 452,516 L 453,517 L 453,519 L 454,520 L 454,521 L 455,522 L 455,524 L 456,525 L 456,526 L 457,527 L 457,529 L 458,530 L 458,532 L 459,533 L 459,535 L 460,536 L 460,538 L 461,539 L 461,541 L 462,542 L 462,543 L 463,544 L 463,546 L 464,547 L 464,548 L 465,549 L 465,551 L 466,552 L 466,554 L 467,555 L 467,556 L 468,557 L 468,559 L 469,560 L 469,562 L 470,563 L 470,564 L 471,565 L 471,567 L 472,568 L 472,569 L 473,570 L 473,572 L 474,573 L 474,574 L 475,575 L 475,577 L 476,578 L 476,580 L 477,581 L 477,582 L 478,583 L 478,585 L 479,586 L 479,588 L 480,589 L 480,590 L 481,591 L 481,593 L 482,594 L 482,596 L 483,597 L 483,598 L 484,599 L 484,601 L 485,602 L 485,603 L 486,604 L 486,606 L 487,607 L 487,609 L 488,610 L 488,611 L 489,612 L 489,614 L 490,615 L 490,617 L 491,618 L 491,619 L 492,620 L 492,622 L 493,623 L 493,625 L 494,626 L 494,627 L 495,628 L 495,630 L 496,631 L 496,632 L 497,633 L 497,635 L 498,636 L 498,638 L 499,639 L 499,640 L 500,641 L 500,643 L 501,644 L 501,646 L 502,647 L 502,648 L 503,649 L 503,651 L 504,652 L 504,654 L 505,655 L 505,657 L 506,658 L 506,659 L 507,659 L 508,658 L 530,658 L 530,656 L 531,655 L 531,653 L 532,652 L 532,651 L 533,650 L 533,648 L 534,647 L 534,645 L 535,644 L 535,642 L 536,641 L 536,639 L 537,638 L 537,637 L 538,636 L 538,634 L 539,633 L 539,631 L 540,630 L 540,628 L 541,627 L 541,625 L 542,624 L 542,623 L 543,622 L 543,620 L 544,619 L 544,617 L 545,616 L 545,614 L 546,613 L 546,611 L 547,610 L 547,609 L 548,608 L 548,606 L 549,605 L 549,603 L 550,602 L 550,601 L 551,600 L 551,598 L 552,597 L 552,595 L 553,594 L 553,592 L 554,591 L 554,590 L 555,589 L 555,587 L 556,586 L 556,584 L 557,583 L 557,582 L 558,581 L 558,579 L 559,578 L 559,576 L 560,575 L 560,574 L 561,573 L 561,571 L 562,570 L 562,568 L 563,567 L 563,566 L 564,565 L 564,563 L 565,562 L 565,560 L 566,559 L 566,557 L 567,556 L 567,555 L 568,554 L 568,552 L 569,551 L 569,549 L 570,548 L 570,547 L 571,546 L 571,544 L 572,543 L 572,541 L 573,540 L 573,539 L 574,538 L 574,536 L 575,535 L 575,533 L 576,532 L 576,531 L 577,530 L 577,528 L 578,527 L 578,525 L 579,524 L 579,523 L 580,522 L 580,520 L 581,519 L 581,517 L 582,516 L 582,514 L 583,513 L 583,512 L 584,511 L 584,509 L 585,508 L 585,507 L 586,506 L 586,504 L 587,503 L 587,501 L 588,500 L 588,499 L 589,498 L 589,496 L 590,495 L 590,493 L 591,492 L 591,491 L 592,490 L 592,488 L 593,487 L 593,485 L 594,484 L 594,483 L 595,482 L 595,480 L 596,479 L 596,477 L 597,476 L 597,475 L 598,474 L 598,472 L 599,471 L 599,469 L 600,468 L 600,466 L 601,465 L 601,463 L 602,462 L 602,461 L 603,460 L 603,458 L 604,457 L 604,455 L 605,454 L 605,453 L 606,452 L 606,450 L 607,449 L 607,447 L 608,446 L 608,445 L 609,444 L 609,442 L 610,441 L 610,440 L 611,439 L 611,437 L 612,436 L 612,434 L 613,433 L 613,431 L 614,430 L 614,429 L 615,428 L 615,426 L 616,425 L 616,423 L 617,422 L 617,421 L 618,420 L 618,418 L 619,417 L 619,415 L 620,414 L 620,413 L 621,412 L 621,410 L 622,409 L 622,408 L 623,407 L 623,405 L 624,404 L 624,403 L 625,402 L 625,401 L 627,399 L 627,398 L 629,396 L 629,395 L 635,389 L 636,389 L 638,387 L 639,387 L 640,386 L 641,386 L 642,385 L 643,385 L 644,384 L 646,384 L 647,383 L 650,383 L 651,382 L 661,382 L 661,369 L 652,369 L 651,368 Z" fill="black" /><path d="M 661,340 Z" fill="black" /><path d="M 364,326 L 364,338 L 662,338 L 662,327 L 371,327 L 370,326 Z" fill="black" /><path d="M 481,171 L 480,172 L 470,172 L 469,173 L 462,173 L 461,174 L 454,174 L 453,175 L 448,175 L 447,176 L 443,176 L 442,177 L 438,177 L 437,178 L 433,178 L 432,179 L 429,179 L 428,180 L 425,180 L 424,181 L 421,181 L 420,182 L 417,182 L 416,183 L 414,183 L 413,184 L 411,184 L 410,185 L 407,185 L 406,186 L 404,186 L 403,187 L 401,187 L 400,188 L 398,188 L 397,189 L 395,189 L 394,190 L 392,190 L 391,191 L 390,191 L 389,192 L 387,192 L 386,193 L 384,193 L 383,194 L 382,194 L 381,195 L 379,195 L 378,196 L 377,196 L 376,197 L 375,197 L 374,198 L 372,198 L 371,199 L 370,199 L 369,200 L 368,200 L 367,201 L 366,201 L 365,202 L 364,202 L 363,203 L 361,203 L 360,204 L 359,204 L 358,205 L 357,205 L 356,206 L 355,206 L 354,207 L 353,207 L 351,209 L 350,209 L 349,210 L 348,210 L 347,211 L 346,211 L 345,212 L 344,212 L 343,213 L 342,213 L 341,214 L 340,214 L 338,216 L 337,216 L 336,217 L 335,217 L 333,219 L 332,219 L 331,220 L 330,220 L 328,222 L 327,222 L 325,224 L 324,224 L 322,226 L 321,226 L 319,228 L 318,228 L 316,230 L 315,230 L 312,233 L 311,233 L 308,236 L 307,236 L 303,240 L 302,240 L 298,244 L 297,244 L 289,252 L 288,252 L 273,267 L 273,268 L 265,276 L 265,277 L 260,282 L 260,283 L 257,286 L 257,287 L 254,290 L 254,291 L 251,294 L 251,295 L 249,297 L 249,298 L 247,300 L 247,301 L 245,303 L 245,304 L 243,306 L 243,307 L 241,309 L 241,310 L 240,311 L 240,312 L 238,314 L 238,315 L 237,316 L 237,317 L 235,319 L 235,320 L 234,321 L 234,322 L 233,323 L 233,324 L 231,326 L 231,327 L 230,328 L 230,329 L 229,330 L 229,331 L 228,332 L 228,333 L 227,334 L 227,335 L 226,336 L 226,337 L 225,338 L 225,339 L 224,340 L 224,341 L 223,342 L 223,343 L 222,344 L 222,346 L 221,347 L 221,348 L 220,349 L 220,350 L 219,351 L 219,352 L 218,353 L 218,355 L 217,356 L 217,357 L 216,358 L 216,360 L 215,361 L 215,362 L 214,363 L 214,365 L 213,366 L 213,367 L 212,368 L 212,370 L 211,371 L 211,373 L 210,374 L 210,376 L 209,377 L 209,379 L 208,380 L 208,382 L 207,383 L 207,385 L 206,386 L 206,388 L 205,389 L 205,391 L 204,392 L 204,395 L 203,396 L 203,398 L 202,399 L 202,402 L 201,403 L 201,406 L 200,407 L 200,410 L 199,411 L 199,414 L 198,415 L 198,419 L 197,420 L 197,424 L 196,425 L 196,429 L 195,430 L 195,435 L 194,436 L 194,441 L 193,442 L 193,448 L 192,449 L 192,456 L 191,457 L 191,466 L 190,467 L 190,481 L 189,482 L 189,521 L 190,522 L 190,536 L 191,537 L 191,547 L 192,548 L 192,555 L 193,556 L 193,563 L 194,564 L 194,569 L 195,570 L 195,575 L 196,576 L 196,580 L 197,581 L 197,585 L 198,586 L 198,589 L 199,590 L 199,594 L 200,595 L 200,598 L 201,599 L 201,602 L 202,603 L 202,606 L 203,607 L 203,609 L 204,610 L 204,613 L 205,614 L 205,616 L 206,617 L 206,619 L 207,620 L 207,622 L 208,623 L 208,626 L 209,627 L 209,629 L 210,630 L 210,632 L 211,633 L 211,634 L 212,635 L 212,637 L 213,638 L 213,640 L 214,641 L 214,642 L 215,643 L 215,645 L 216,646 L 216,648 L 217,649 L 217,650 L 218,651 L 218,652 L 219,653 L 219,655 L 220,656 L 220,657 L 221,658 L 221,659 L 222,660 L 222,662 L 223,663 L 223,664 L 224,665 L 224,666 L 225,667 L 225,668 L 226,669 L 226,670 L 227,671 L 227,672 L 228,673 L 228,674 L 229,675 L 229,676 L 230,677 L 230,678 L 231,679 L 231,680 L 232,681 L 232,682 L 233,683 L 233,684 L 234,685 L 234,686 L 235,687 L 235,688 L 236,689 L 236,690 L 237,691 L 237,692 L 238,693 L 238,694 L 240,696 L 240,697 L 241,698 L 241,699 L 243,701 L 243,702 L 244,703 L 244,704 L 246,706 L 246,707 L 247,708 L 247,709 L 249,711 L 249,712 L 250,713 L 250,714 L 252,716 L 252,717 L 255,720 L 255,721 L 257,723 L 257,724 L 260,727 L 260,728 L 264,732 L 264,733 L 269,738 L 269,739 L 276,746 L 276,747 L 298,769 L 299,769 L 303,773 L 304,773 L 308,777 L 309,777 L 313,781 L 314,781 L 317,784 L 318,784 L 320,786 L 321,786 L 323,788 L 324,788 L 326,790 L 327,790 L 329,792 L 330,792 L 332,794 L 333,794 L 335,796 L 336,796 L 337,797 L 338,797 L 340,799 L 341,799 L 342,800 L 343,800 L 344,801 L 345,801 L 346,802 L 347,802 L 349,804 L 350,804 L 351,805 L 352,805 L 353,806 L 354,806 L 355,807 L 356,807 L 357,808 L 358,808 L 359,809 L 360,809 L 361,810 L 362,810 L 363,811 L 364,811 L 365,812 L 366,812 L 367,813 L 368,813 L 369,814 L 370,814 L 371,815 L 373,815 L 374,816 L 375,816 L 376,817 L 378,817 L 379,818 L 380,818 L 381,819 L 383,819 L 384,820 L 386,820 L 387,821 L 388,821 L 389,822 L 391,822 L 392,823 L 394,823 L 395,824 L 396,824 L 397,825 L 399,825 L 400,826 L 402,826 L 403,827 L 406,827 L 407,828 L 409,828 L 410,829 L 412,829 L 413,830 L 416,830 L 417,831 L 419,831 L 420,832 L 423,832 L 424,833 L 428,833 L 429,834 L 432,834 L 433,835 L 437,835 L 438,836 L 443,836 L 444,837 L 449,837 L 450,838 L 456,838 L 457,839 L 465,839 L 466,840 L 478,840 L 479,841 L 528,841 L 529,840 L 542,840 L 543,839 L 552,839 L 553,838 L 559,838 L 560,837 L 566,837 L 567,836 L 572,836 L 573,835 L 577,835 L 578,834 L 582,834 L 583,833 L 587,833 L 588,832 L 592,832 L 593,831 L 596,831 L 597,830 L 600,830 L 601,829 L 604,829 L 605,828 L 607,828 L 608,827 L 610,827 L 611,826 L 613,826 L 614,825 L 617,825 L 618,824 L 620,824 L 621,823 L 623,823 L 624,822 L 625,822 L 626,821 L 628,821 L 629,820 L 631,820 L 632,819 L 633,819 L 634,818 L 636,818 L 637,817 L 638,817 L 639,816 L 641,816 L 642,815 L 643,815 L 644,814 L 645,814 L 646,813 L 647,813 L 648,812 L 649,812 L 650,811 L 652,811 L 653,810 L 654,810 L 655,809 L 656,809 L 657,808 L 658,808 L 659,807 L 660,807 L 661,806 L 662,806 L 663,805 L 664,805 L 665,804 L 666,804 L 668,802 L 669,802 L 670,801 L 671,801 L 672,800 L 673,800 L 674,799 L 675,799 L 676,798 L 677,798 L 679,796 L 680,796 L 681,795 L 682,795 L 684,793 L 685,793 L 686,792 L 687,792 L 689,790 L 690,790 L 691,789 L 692,789 L 694,787 L 695,787 L 697,785 L 698,785 L 700,783 L 701,783 L 703,781 L 704,781 L 706,779 L 707,779 L 709,777 L 710,777 L 712,775 L 713,775 L 716,772 L 717,772 L 721,768 L 722,768 L 726,764 L 726,752 L 727,751 L 727,738 L 728,737 L 728,727 L 729,726 L 729,715 L 730,714 L 730,705 L 731,704 L 731,695 L 732,694 L 732,686 L 733,685 L 733,678 L 734,677 L 734,671 L 735,670 L 735,665 L 736,664 L 736,659 L 737,658 L 737,654 L 738,653 L 738,648 L 739,647 L 739,645 L 738,645 L 737,646 L 718,646 L 717,645 L 716,646 L 716,649 L 715,650 L 715,653 L 714,654 L 714,656 L 713,657 L 713,660 L 712,661 L 712,663 L 711,664 L 711,666 L 710,667 L 710,669 L 709,670 L 709,672 L 708,673 L 708,674 L 707,675 L 707,677 L 706,678 L 706,679 L 705,680 L 705,681 L 704,682 L 704,684 L 703,685 L 703,686 L 702,687 L 702,688 L 701,689 L 701,690 L 700,691 L 700,692 L 699,693 L 699,694 L 698,695 L 698,697 L 697,698 L 697,699 L 696,700 L 696,701 L 694,703 L 694,704 L 693,705 L 693,706 L 692,707 L 692,708 L 691,709 L 691,710 L 689,712 L 689,713 L 688,714 L 688,715 L 686,717 L 686,718 L 685,719 L 685,720 L 683,722 L 683,723 L 681,725 L 681,726 L 678,729 L 678,730 L 675,733 L 675,734 L 672,737 L 672,738 L 667,743 L 667,744 L 649,762 L 648,762 L 643,767 L 642,767 L 638,771 L 637,771 L 634,774 L 633,774 L 631,776 L 630,776 L 627,779 L 626,779 L 625,780 L 624,780 L 622,782 L 621,782 L 620,783 L 619,783 L 617,785 L 616,785 L 615,786 L 614,786 L 613,787 L 612,787 L 611,788 L 610,788 L 609,789 L 608,789 L 607,790 L 606,790 L 605,791 L 604,791 L 603,792 L 602,792 L 601,793 L 600,793 L 599,794 L 597,794 L 596,795 L 595,795 L 594,796 L 593,796 L 592,797 L 590,797 L 589,798 L 587,798 L 586,799 L 584,799 L 583,800 L 582,800 L 581,801 L 579,801 L 578,802 L 575,802 L 574,803 L 571,803 L 570,804 L 567,804 L 566,805 L 563,805 L 562,806 L 558,806 L 557,807 L 552,807 L 551,808 L 543,808 L 542,809 L 529,809 L 528,810 L 513,810 L 512,809 L 501,809 L 500,808 L 492,808 L 491,807 L 485,807 L 484,806 L 480,806 L 479,805 L 475,805 L 474,804 L 471,804 L 470,803 L 467,803 L 466,802 L 464,802 L 463,801 L 460,801 L 459,800 L 457,800 L 456,799 L 454,799 L 453,798 L 452,798 L 451,797 L 449,797 L 448,796 L 446,796 L 445,795 L 444,795 L 443,794 L 442,794 L 441,793 L 440,793 L 439,792 L 437,792 L 436,791 L 435,791 L 434,790 L 433,790 L 432,789 L 431,789 L 429,787 L 428,787 L 427,786 L 426,786 L 425,785 L 424,785 L 423,784 L 422,784 L 420,782 L 419,782 L 418,781 L 417,781 L 415,779 L 414,779 L 412,777 L 411,777 L 409,775 L 408,775 L 406,773 L 405,773 L 402,770 L 401,770 L 398,767 L 397,767 L 394,764 L 393,764 L 387,758 L 386,758 L 378,750 L 377,750 L 366,739 L 366,738 L 357,729 L 357,728 L 351,722 L 351,721 L 347,717 L 347,716 L 343,712 L 343,711 L 341,709 L 341,708 L 338,705 L 338,704 L 336,702 L 336,701 L 334,699 L 334,698 L 332,696 L 332,695 L 330,693 L 330,692 L 328,690 L 328,689 L 327,688 L 327,687 L 325,685 L 325,684 L 324,683 L 324,682 L 323,681 L 323,680 L 321,678 L 321,677 L 320,676 L 320,675 L 319,674 L 319,673 L 318,672 L 318,671 L 317,670 L 317,669 L 316,668 L 316,667 L 315,666 L 315,665 L 314,664 L 314,663 L 313,662 L 313,661 L 312,660 L 312,659 L 311,658 L 311,657 L 310,656 L 310,654 L 309,653 L 309,652 L 308,651 L 308,650 L 307,649 L 307,648 L 306,647 L 306,645 L 305,644 L 305,643 L 304,642 L 304,640 L 303,639 L 303,638 L 302,637 L 302,635 L 301,634 L 301,632 L 300,631 L 300,630 L 299,629 L 299,627 L 298,626 L 298,623 L 297,622 L 297,621 L 296,620 L 296,618 L 295,617 L 295,614 L 294,613 L 294,611 L 293,610 L 293,608 L 292,607 L 292,604 L 291,603 L 291,600 L 290,599 L 290,596 L 289,595 L 289,592 L 288,591 L 288,587 L 287,586 L 287,583 L 286,582 L 286,578 L 285,577 L 285,573 L 284,572 L 284,567 L 283,566 L 283,560 L 282,559 L 282,553 L 281,552 L 281,545 L 280,544 L 280,535 L 279,534 L 279,518 L 278,517 L 278,484 L 279,483 L 279,464 L 280,463 L 280,454 L 281,453 L 281,446 L 282,445 L 282,439 L 283,438 L 283,433 L 284,432 L 284,427 L 285,426 L 285,422 L 286,421 L 286,417 L 287,416 L 287,413 L 288,412 L 288,408 L 289,407 L 289,404 L 290,403 L 290,400 L 291,399 L 291,397 L 292,396 L 292,393 L 293,392 L 293,390 L 294,389 L 294,387 L 295,386 L 295,383 L 296,382 L 296,380 L 297,379 L 297,377 L 298,376 L 298,374 L 299,373 L 299,372 L 300,371 L 300,369 L 301,368 L 301,366 L 302,365 L 302,363 L 303,362 L 303,361 L 304,360 L 304,358 L 305,357 L 305,356 L 306,355 L 306,354 L 307,353 L 307,351 L 308,350 L 308,349 L 309,348 L 309,347 L 310,346 L 310,344 L 311,343 L 311,342 L 312,341 L 312,340 L 313,339 L 313,338 L 314,337 L 314,336 L 315,335 L 315,334 L 316,333 L 316,332 L 317,331 L 317,330 L 318,329 L 318,328 L 319,327 L 319,326 L 320,325 L 320,324 L 321,323 L 321,322 L 323,320 L 323,319 L 324,318 L 324,317 L 325,316 L 325,315 L 327,313 L 327,312 L 328,311 L 328,310 L 330,308 L 330,307 L 331,306 L 331,305 L 333,303 L 333,302 L 335,300 L 335,299 L 337,297 L 337,296 L 339,294 L 339,293 L 342,290 L 342,289 L 344,287 L 344,286 L 347,283 L 347,282 L 351,278 L 351,277 L 356,272 L 356,271 L 378,249 L 379,249 L 383,245 L 384,245 L 388,241 L 389,241 L 391,239 L 392,239 L 395,236 L 396,236 L 398,234 L 399,234 L 401,232 L 402,232 L 404,230 L 405,230 L 407,228 L 408,228 L 409,227 L 410,227 L 412,225 L 413,225 L 414,224 L 415,224 L 416,223 L 417,223 L 418,222 L 419,222 L 420,221 L 421,221 L 422,220 L 423,220 L 424,219 L 425,219 L 426,218 L 427,218 L 428,217 L 429,217 L 430,216 L 431,216 L 432,215 L 434,215 L 435,214 L 436,214 L 437,213 L 439,213 L 440,212 L 441,212 L 442,211 L 444,211 L 445,210 L 447,210 L 448,209 L 450,209 L 451,208 L 453,208 L 454,207 L 457,207 L 458,206 L 460,206 L 461,205 L 464,205 L 465,204 L 469,204 L 470,203 L 473,203 L 474,202 L 478,202 L 479,201 L 484,201 L 485,200 L 491,200 L 492,199 L 503,199 L 504,198 L 534,198 L 535,199 L 546,199 L 547,200 L 554,200 L 555,201 L 559,201 L 560,202 L 565,202 L 566,203 L 569,203 L 570,204 L 573,204 L 574,205 L 577,205 L 578,206 L 581,206 L 582,207 L 583,207 L 584,208 L 587,208 L 588,209 L 589,209 L 590,210 L 592,210 L 593,211 L 595,211 L 596,212 L 597,212 L 598,213 L 600,213 L 601,214 L 602,214 L 603,215 L 604,215 L 605,216 L 607,216 L 608,217 L 609,217 L 610,218 L 611,218 L 612,219 L 613,219 L 615,221 L 616,221 L 617,222 L 618,222 L 619,223 L 620,223 L 621,224 L 622,224 L 624,226 L 625,226 L 627,228 L 628,228 L 629,229 L 630,229 L 632,231 L 633,231 L 636,234 L 637,234 L 640,237 L 641,237 L 645,241 L 646,241 L 666,261 L 666,262 L 670,266 L 670,267 L 673,270 L 673,271 L 675,273 L 675,274 L 677,276 L 677,277 L 679,279 L 679,280 L 681,282 L 681,283 L 682,284 L 682,285 L 684,287 L 684,288 L 685,289 L 685,290 L 686,291 L 686,292 L 687,293 L 687,294 L 688,295 L 688,296 L 689,297 L 689,298 L 690,299 L 690,300 L 691,301 L 691,302 L 692,303 L 692,304 L 693,305 L 693,307 L 694,308 L 694,309 L 695,310 L 695,312 L 696,313 L 696,315 L 697,316 L 697,318 L 698,319 L 698,321 L 699,322 L 699,324 L 700,325 L 700,327 L 701,328 L 701,331 L 702,332 L 702,335 L 719,335 L 718,334 L 718,325 L 717,324 L 717,310 L 716,309 L 716,294 L 715,293 L 715,272 L 714,271 L 714,243 L 713,242 L 713,232 L 712,231 L 711,231 L 708,228 L 707,228 L 705,226 L 704,226 L 702,224 L 701,224 L 699,222 L 698,222 L 696,220 L 695,220 L 693,218 L 692,218 L 691,217 L 690,217 L 689,216 L 688,216 L 686,214 L 685,214 L 684,213 L 683,213 L 682,212 L 681,212 L 680,211 L 679,211 L 678,210 L 677,210 L 676,209 L 675,209 L 674,208 L 673,208 L 671,206 L 670,206 L 669,205 L 667,205 L 666,204 L 665,204 L 664,203 L 663,203 L 662,202 L 661,202 L 660,201 L 659,201 L 658,200 L 657,200 L 656,199 L 654,199 L 653,198 L 652,198 L 651,197 L 650,197 L 649,196 L 647,196 L 646,195 L 645,195 L 644,194 L 642,194 L 641,193 L 639,193 L 638,192 L 636,192 L 635,191 L 633,191 L 632,190 L 630,190 L 629,189 L 626,189 L 625,188 L 623,188 L 622,187 L 619,187 L 618,186 L 616,186 L 615,185 L 611,185 L 610,184 L 607,184 L 606,183 L 603,183 L 602,182 L 599,182 L 598,181 L 594,181 L 593,180 L 589,180 L 588,179 L 585,179 L 584,178 L 579,178 L 578,177 L 574,177 L 573,176 L 568,176 L 567,175 L 562,175 L 561,174 L 554,174 L 553,173 L 546,173 L 545,172 L 535,172 L 534,171 Z" fill="black" /></svg>